HIERARCHY
ROOT pelvis
{
	OFFSET 0.000000 0.000000 0.000000
	CHANNELS 6 Xposition Yposition Zposition Zrotation Xrotation Yrotation
	JOINT lfemur
	{
		OFFSET 11.446000 0.000000 0.000000
		CHANNELS 3 Zrotation Xrotation Yrotation
		JOINT ltibia
		{
			OFFSET 0.000000 -42.030400 0.000000
			CHANNELS 3 Zrotation Xrotation Yrotation
			JOINT lfoot
			{
				OFFSET 0.000000 -39.930200 0.000000
				CHANNELS 3 Zrotation Xrotation Yrotation
				JOINT ltoes
				{
					OFFSET 0.000000 0.000000 11.775800
					CHANNELS 3 Zrotation Xrotation Yrotation
					End Site
					{
					    OFFSET 0.000000 0.000000 5.000000
					}
				}
			}
		}
	}
	JOINT rfemur
	{
		OFFSET -11.446000 0.000000 0.000000
		CHANNELS 3 Zrotation Xrotation Yrotation
		JOINT rtibia
		{
			OFFSET 0.000000 -42.030400 0.000000
			CHANNELS 3 Zrotation Xrotation Yrotation
			JOINT rfoot
			{
				OFFSET 0.000000 -39.930200 0.000000
				CHANNELS 3 Zrotation Xrotation Yrotation
				JOINT rtoes
				{
					OFFSET 0.000000 0.000000 11.775800
					CHANNELS 3 Zrotation Xrotation Yrotation
					End Site
					{
					    OFFSET 0.000000 0.000000 5.000000
					}
				}
			}
		}
	}
	JOINT thorax
	{
		OFFSET 0.000000 11.255600 -5.000000
		CHANNELS 3 Zrotation Xrotation Yrotation
		JOINT head
		{
			OFFSET 0.000000 43.799300 0.000000
			CHANNELS 3 Zrotation Xrotation Yrotation
			End Site
			{
			    OFFSET 0.000000 5.000000 0.000000
			}
		}
		JOINT lclavicle
		{
			OFFSET 0.000000 39.863000 0.000000
			CHANNELS 3 Zrotation Xrotation Yrotation
			JOINT lhumerus
			{
				OFFSET 17.380600 4.958300 0.000000
				CHANNELS 3 Zrotation Xrotation Yrotation
				JOINT lradius
				{
					OFFSET 0.000000 -27.561300 0.000000
					CHANNELS 3 Zrotation Xrotation Yrotation
					JOINT lhand
					{
						OFFSET 0.000000 -26.933000 0.000000
						CHANNELS 3 Zrotation Xrotation Yrotation
						End Site
						{
						    OFFSET 0.000000 -5.000000 0.000000
						}
					}
				}
			}
		}
		JOINT rclavicle
		{
			OFFSET 0.000000 39.863000 0.000000
			CHANNELS 3 Zrotation Xrotation Yrotation
			JOINT rhumerus
			{
				OFFSET -17.380600 4.958300 0.000000
				CHANNELS 3 Zrotation Xrotation Yrotation
				JOINT rradius
				{
					OFFSET 0.000000 -27.561300 0.000000
					CHANNELS 3 Zrotation Xrotation Yrotation
					JOINT rhand
					{
						OFFSET 0.000000 -26.933000 0.000000
						CHANNELS 3 Zrotation Xrotation Yrotation
						End Site
						{
						    OFFSET 0.000000 -5.000000 0.000000
						}
					}
				}
			}
		}
	}
}
MOTION
Frames:	16
Frame Time:	0.0333333
-230.067 89.4215 8.94704 -0.149772 0.0930789 91.9437 -1.33294 -0.432666 1.27025 1.51478 9.54345 10.5299 2.35205 2.747 0.031921 1.31201e-015 -5 -3.1927e-015 2.65488 2.91451 -1.03534 -0.112141 7.01423 -16.5577 -2.2958 3.82809 -0.135343 7.95139e-016 -5 -0 -4.7289 -2.15372 -1.55528 5.47636 7.90398 -5.70633 -7.95139e-016 -2.48481e-016 -0 14.4618 -11.252 62.517 2.63011 -0.12971 -109.035 7.34088 -9.05157 -9.00861 -7.95139e-016 -2.48481e-016 -0 -12.3324 -2.19057 -30.5687 13.5308 -4.12678 58.562 -0.493765 -1.40613 9.89487 
-230.067 89.4216 8.95623 -0.15185 0.100833 91.9357 -1.34916 -0.421646 1.24041 1.53948 9.52419 10.5622 2.34528 2.75171 0.0317571 -2.18663e-015 -5 -0 2.6283 2.90581 -1.08718 -0.0623164 7.0492 -16.5001 -2.35761 3.80731 -0.135892 -7.95139e-016 -5 -0 -4.75203 -2.17232 -1.54852 5.49819 7.97316 -5.66177 -4.56908e-033 1.31695e-015 1.98785e-016 14.5264 -11.264 62.5355 2.63446 -0.0980533 -109.01 7.29998 -9.17546 -9.00709 -4.56908e-033 1.31695e-015 1.98785e-016 -12.3284 -2.20075 -30.5429 13.5492 -4.06095 58.5474 -0.533404 -1.4022 9.89468 
-230.056 89.4208 8.97527 -0.128365 0.115292 91.8885 -1.37313 -0.367687 1.20601 1.5755 9.49631 10.6425 2.28905 2.74982 0.0316552 1.70958e-015 -5 -3.1927e-015 2.58094 2.91759 -1.18084 0.0228518 7.10802 -16.384 -2.52537 3.77976 -0.137574 -1.5108e-015 -5 3.1927e-015 -4.72756 -2.20354 -1.51901 5.44489 8.12848 -5.56495 7.95139e-016 1.10574e-015 -9.93923e-017 14.5327 -11.2368 62.2837 2.43676 -0.0894486 -108.611 7.15432 -9.0434 -9.03372 7.95139e-016 1.10574e-015 -9.93923e-017 -12.383 -2.20414 -30.5232 13.5782 -3.92329 58.5546 -0.591598 -1.39951 9.89467 
-230.027 89.4172 9.00072 -0.070992 0.118761 91.8333 -1.36473 -0.29346 1.21439 1.58845 9.51046 10.6944 2.18595 2.71881 0.0315425 5.96354e-016 -5 -0 2.56436 3.00071 -1.24252 0.0788404 7.10031 -16.3007 -2.67089 3.76782 -0.139465 3.26003e-015 -5 3.1927e-015 -4.54245 -2.19549 -1.47667 5.18711 8.24685 -5.55247 7.95139e-016 -8.69683e-017 -0 14.3246 -11.1862 61.8608 2.18873 -0.104119 -108.11 7.08524 -8.67208 -9.06452 7.95139e-016 -8.69683e-017 -0 -12.5537 -2.16212 -30.5078 13.5914 -3.84092 58.6014 -0.649215 -1.4336 9.89482 
-230.034 89.4102 9.03748 -0.0767843 0.114438 91.8354 -1.32631 -0.36771 1.23803 1.57853 9.63994 10.6668 2.17053 2.67565 0.0314253 2.64385e-015 -5 -1.59635e-015 2.59272 2.99437 -1.22738 0.0862605 7.09491 -16.3287 -2.71487 3.74946 -0.141229 -3.61795e-015 -5 6.38541e-015 -4.34019 -2.1592 -1.47272 4.96898 8.27454 -5.55889 7.95139e-016 -1.06847e-015 -1.98785e-016 14.097 -11.243 61.6541 2.20606 -0.0459474 -108.093 7.25441 -8.57557 -9.05207 7.95139e-016 -1.06847e-015 -1.98785e-016 -12.6531 -2.12472 -30.4968 13.57 -3.8915 58.6364 -0.69138 -1.48813 9.89507 
-230.113 89.4045 9.09106 -0.203935 0.122459 91.9005 -1.29509 -0.655822 1.2249 1.57112 9.83799 10.5982 2.24926 2.65403 0.0313104 3.18055e-015 -5 -0 2.63156 2.73821 -1.15735 0.0745499 7.24988 -16.4497 -2.70259 3.69522 -0.142258 -2.90229e-015 -5 3.1927e-015 -4.38577 -2.16496 -1.55908 5.17255 8.30786 -5.29348 1.59028e-015 3.16813e-016 -9.93923e-017 14.1037 -11.3982 61.7078 2.38242 -0.087087 -108.351 7.20542 -8.76464 -9.045 1.59028e-015 3.16813e-016 -9.93923e-017 -12.4523 -2.17167 -30.4686 13.5169 -4.01246 58.5815 -0.664247 -1.49152 9.8951 
-230.212 89.4017 9.15499 -0.359129 0.158763 91.9366 -1.29418 -0.927351 1.18612 1.57178 9.92697 10.581 2.22794 2.68194 0.0312043 3.97569e-016 -5 -0 2.63984 2.37113 -1.10184 0.0710231 7.55517 -16.5306 -2.72 3.60028 -0.14393 2.46489e-015 -5 3.1927e-015 -4.65356 -2.20439 -1.69408 5.65572 8.38236 -4.80436 -1.59028e-015 -4.47266e-016 4.96962e-017 14.3883 -11.559 61.7454 2.36178 -0.108701 -108.154 6.65079 -8.59142 -9.12166 -1.59028e-015 -4.47266e-016 4.96962e-017 -12.054 -2.24809 -30.3269 13.4743 -4.15257 58.4097 -0.548492 -1.45021 9.89494 
-230.243 89.3956 9.21675 -0.402833 0.226681 91.8517 -1.32162 -0.947017 1.1683 1.56219 9.84727 10.6762 2.08852 2.74141 0.0311125 1.19271e-015 -5 -0 2.61011 2.13468 -1.09822 0.0615422 7.90047 -16.4572 -2.78904 3.44125 -0.145638 -1.86854e-015 -5 -3.1927e-015 -4.83815 -2.12988 -1.73326 5.83657 8.29871 -4.61318 0 5.43552e-016 -0 14.5736 -11.675 61.6477 2.15959 -0.0876542 -107.514 6.11406 -7.96471 -9.22145 0 5.43552e-016 -0 -11.8295 -2.26881 -30.0362 13.4999 -4.31423 58.1955 -0.446839 -1.47605 9.8951 
-230.217 89.3811 9.27912 -0.351177 0.307239 91.6774 -1.35637 -0.813939 1.18232 1.53615 9.7668 10.8381 2.06163 2.76245 0.0310391 -3.97569e-016 -5 -0 2.5768 2.0422 -1.10701 0.0230286 8.21712 -16.2854 -2.86551 3.22924 -0.147391 -1.27219e-015 -5 -3.1927e-015 -4.81335 -1.81681 -1.60279 5.55016 7.88253 -4.94134 -1.59028e-015 -9.31803e-017 -0 14.5146 -11.9069 61.5941 2.0893 -0.035806 -107.235 6.42555 -7.64743 -9.20425 -1.59028e-015 -9.31803e-017 -0 -11.922 -2.34339 -29.8666 13.5844 -4.38165 58.1392 -0.468208 -1.60782 9.89577 
-230.201 89.3665 9.36078 -0.297751 0.358868 91.5268 -1.33318 -0.737823 1.24843 1.48803 9.79131 10.9207 2.13736 2.72015 0.0309893 3.24021e-015 -5 -1.59635e-015 2.58949 2.00388 -1.07826 -0.0192792 8.40821 -16.1652 -2.92193 3.07947 -0.149215 -9.93923e-017 -5 -0 -4.75615 -1.36607 -1.43511 5.25132 7.33574 -5.315 -7.95139e-016 -7.76503e-017 -4.96962e-017 14.4772 -12.3106 61.6787 2.17797 -0.108865 -107.596 7.34905 -8.01851 -9.07325 -7.95139e-016 -7.76503e-017 -4.96962e-017 -12.0692 -2.64754 -30.231 13.6081 -4.11925 58.4669 -0.571135 -1.71488 9.89639 
-230.197 89.3648 9.47533 -0.248519 0.348532 91.4394 -1.17361 -0.705775 1.43725 1.38346 9.84912 10.824 2.02322 2.65894 0.0309702 -7.95139e-016 -5 -0 2.66499 2.06687 -1.03496 -0.00454169 8.36994 -16.1246 -2.9868 3.06206 -0.151126 -7.95139e-016 -5 -0 -4.74678 -1.06963 -1.4022 5.19995 7.07929 -5.30808 -7.95139e-016 3.7738e-016 4.96962e-017 14.6785 -12.6289 61.7682 2.18582 -0.158847 -107.969 7.94052 -8.42457 -8.975 -7.95139e-016 3.7738e-016 4.96962e-017 -12.0315 -3.04035 -31.0052 13.4609 -3.5735 59.0718 -0.635782 -1.67977 9.89631 
-230.17 89.3494 9.624 -0.16763 0.298345 91.3702 -0.897173 -0.739706 1.74074 1.2125 10.1305 10.6181 1.75608 2.48648 0.03502 1.13305e-015 -5 1.59635e-015 2.77602 2.18086 -1.02051 0.071393 8.3389 -16.0892 -3.05029 2.9695 -0.153853 1.61019e-015 -5 -3.1927e-015 -4.6693 -1.02592 -1.47138 5.17642 7.22228 -5.07442 1.59028e-015 3.80292e-016 6.21202e-018 14.8737 -12.6195 61.7158 2.09592 -0.00328495 -107.806 7.77677 -8.34689 -9.00561 1.59028e-015 3.80292e-016 6.21202e-018 -11.8802 -3.19146 -31.4542 13.2359 -3.20869 59.4166 -0.636417 -1.60681 9.89607 
-230.161 89.2701 9.80838 -0.12343 0.279222 91.3595 -0.620466 -1.32035 1.98717 1.05315 11.441 10.3961 1.59932 1.85095 0.0464102 -1.39149e-015 -5 -0 2.90301 1.96118 -0.989832 0.115178 8.92527 -16.1379 -3.02868 2.45154 -0.169566 7.15661e-016 -5 -3.1927e-015 -4.5496 -0.884124 -1.47038 5.15244 7.36039 -4.89743 -0 -2.05773e-016 -0 14.6973 -12.5139 61.5024 2.07889 -0.125879 -107.175 7.06117 -8.15987 -9.09786 -0 -2.05773e-016 -0 -11.784 -3.18336 -31.2879 13.1897 -3.34307 59.1451 -0.593918 -1.69344 9.89665 
-230.273 89.102 10.0331 -0.198568 0.3217 91.5942 -0.36322 -3.09071 2.01596 0.958906 14.7115 10.0108 1.16312 0.607073 0.0595481 1.78906e-015 -5 -0 3.07038 1.13215 -0.88502 0.0634643 10.4184 -16.5125 -2.95628 1.45616 -0.197833 -3.45882e-015 -5 -3.1927e-015 -4.56015 -0.171369 -1.37578 5.46709 7.0199 -4.72289 1.59028e-015 6.21202e-018 -9.93923e-017 14.7958 -13.1019 61.3613 2.13794 -0.00332906 -106.504 6.65704 -8.14416 -9.15103 1.59028e-015 6.21202e-018 -9.93923e-017 -11.6988 -3.58724 -31.0135 13.3636 -3.75051 58.3712 -0.465821 -1.89956 9.90412 
-230.497 88.8601 10.2858 -0.281953 0.338939 92.2183 0.063329 -6.26457 1.88303 0.831806 20.4226 9.14605 -0.313863 -0.658865 0.0378231 1.52569e-015 -5 -1.59635e-015 3.32258 -0.00566057 -0.816512 0.0291794 12.423 -17.2656 -3.01876 0.261455 -0.231858 1.68967e-015 -5 -0 -4.54096 1.14364 -1.34706 6.07233 6.17628 -4.46755 1.59028e-015 -3.60297e-016 9.93923e-017 15.2852 -14.3145 61.4686 2.25101 -0.00324959 -106.099 6.6356 -8.22036 -9.14924 1.59028e-015 -3.60297e-016 9.93923e-017 -11.4486 -4.68598 -31.1694 13.4878 -4.07176 57.5169 -0.232764 -1.93074 9.9184 
-230.712 88.5569 10.5398 -0.160109 0.196253 93.1077 0.813026 -10.4842 2.00184 0.698205 28.3115 7.5632 -2.46772 -0.856747 -0.0206988 -1.59028e-015 -5 -0 3.64533 -0.927179 -0.980996 0.18628 14.4401 -18.0983 -3.20941 -0.943933 -0.270631 -3.10601e-015 -5 -0 -4.03487 2.62379 -1.43296 6.3352 5.17713 -4.33199 -7.95139e-016 7.45443e-016 1.98785e-016 15.7861 -15.4139 61.978 2.61734 -0.045832 -106.002 7.02493 -8.26815 -9.09886 -7.95139e-016 7.45443e-016 1.98785e-016 -11.083 -6.09071 -31.5415 13.3701 -4.28398 56.9009 -0.0443764 -1.69385 9.9301 
